<svg width="351" height="365" viewBox="0 0 351 365" fill="none" xmlns="http://www.w3.org/2000/svg">
<path fill-rule="evenodd" clip-rule="evenodd" d="M175.5 314.075C248.194 314.075 307.125 255.154 307.125 182.471C307.125 109.789 248.194 50.8678 175.5 50.8678C102.806 50.8678 43.875 109.789 43.875 182.471C43.875 255.154 102.806 314.075 175.5 314.075ZM175.5 357.943C272.426 357.943 351 279.381 351 182.471C351 85.5612 272.426 7 175.5 7C78.574 7 0 85.5612 0 182.471C0 279.381 78.574 357.943 175.5 357.943Z" fill="white"/>
<path fill-rule="evenodd" clip-rule="evenodd" d="M195.172 142.145C194.93 142.641 194.332 142.846 193.83 142.615C185.729 138.891 176.678 137.719 167.881 139.27C158.757 140.879 150.375 145.334 143.939 151.998C137.503 158.662 133.342 167.192 132.052 176.366C130.809 185.21 132.296 194.213 136.301 202.178C136.549 202.671 136.365 203.276 135.878 203.536L98.9044 223.191C98.4167 223.451 97.8106 223.266 97.5569 222.775C89.2049 206.629 86.0715 188.278 88.6041 170.261C91.1832 151.913 99.5054 134.853 112.378 121.525C125.251 108.197 142.013 99.286 160.263 96.0687C178.183 92.9093 196.635 95.3998 213.066 103.182C213.565 103.418 213.771 104.018 213.529 104.514L195.172 142.145Z" fill="white"/>
</svg>

